<?xml version="1.0" encoding="UTF-8" standalone="no"?><!DOCTYPE svg PUBLIC "-//W3C//DTD SVG 1.1//EN" "http://www.w3.org/Graphics/SVG/1.1/DTD/svg11.dtd"><svg width="100%" height="100%" viewBox="0 0 256 256" version="1.1" xmlns="http://www.w3.org/2000/svg" xmlns:xlink="http://www.w3.org/1999/xlink" xml:space="preserve" xmlns:serif="http://www.serif.com/" style="fill-rule:evenodd;clip-rule:evenodd;stroke-linecap:round;stroke-linejoin:round;stroke-miterlimit:1.5;"><rect id="logo" x="0" y="0" width="256" height="256" style="fill:none;"/><g id="logo1" serif:id="logo"><g id="Idee-2" serif:id="Idee 2"><path d="M44.081,178.608c-16.827,-0.107 -30.456,-13.801 -30.456,-30.654c0,-16.918 13.736,-30.654 30.654,-30.654c9.896,-0 18.703,4.699 24.308,11.985c-0.01,-0.426 -0.016,-0.855 -0.016,-1.285c0,-27.932 22.677,-50.608 50.609,-50.608c23.973,-0 44.076,16.705 49.292,39.101c4.304,-3.389 9.733,-5.411 15.631,-5.411c11.582,0 21.357,7.798 24.356,18.424c2.688,-0.975 5.588,-1.506 8.612,-1.506c13.966,-0 25.304,11.338 25.304,25.304c0,13.966 -11.338,25.304 -25.304,25.304l-172.792,0l-0.198,-0Z" style="fill:none;stroke:url(#_Linear1);stroke-width:6.25px;"/></g></g><defs><linearGradient id="_Linear1" x1="0" y1="0" x2="1" y2="0" gradientUnits="userSpaceOnUse" gradientTransform="matrix(228.75,0,0,101.217,13.625,128)"><stop offset="0" style="stop-color:#f30b85;stop-opacity:1"/><stop offset="1" style="stop-color:#0ce2f9;stop-opacity:1"/></linearGradient></defs></svg>